<svg width="24" height="24" viewBox="0 0 24 24" fill="none" xmlns="http://www.w3.org/2000/svg">
<g clip-path="url(#clip0_577_9795)">
<path d="M10.01 21.0563C10.01 22.1307 10.9 23 12 23C13.1 23 13.99 22.1307 13.99 21.0563H10.01ZM12 6.39535C14.76 6.39535 17 8.58326 17 11.2791V18.1163H7V11.2791C7 8.58326 9.24 6.39535 12 6.39535ZM12 2C11.17 2 10.5 2.65442 10.5 3.46512V4.60791C7.36 5.27209 5 8.00698 5 11.2791V17.1395L3 19.093V20.0698H21V19.093L19 17.1395V11.2791C19 8.00698 16.64 5.27209 13.5 4.60791V3.46512C13.5 2.65442 12.83 2 12 2Z" fill="#222222"/>
</g>
<defs>
<clipPath id="clip0_577_9795">
<rect width="24" height="24" fill="white"/>
</clipPath>
</defs>
</svg>
