<?xml version="1.0" encoding="UTF-8"?>
<svg id="_레이어_2" data-name="레이어 2" xmlns="http://www.w3.org/2000/svg" viewBox="0 0 180.3 166.41">
  <defs>
    <style>
      .cls-1 {
        fill: #4900ff;
      }
    </style>
  </defs>
  <g id="_레이어_1-2" data-name="레이어 1">
    <g>
      <path class="cls-1" d="M179.21,41.55c4.11-19.75-1.23-41.55-53.27-41.55h-7.88c2.68,0,3.8,3.39,2.59,6.5l-22.3,57.1c-.96,2.47-.15,5.79,1.57,6.4l17.93,6.41c1.94.69,2.64,4.74,1.23,7.09l-49.35,82.92h23.7c44.84,0,72.61-17.28,79.61-50.39,5.14-24.68-8.43-38.05-25.09-41.96,15.84-5.35,27.77-15.84,31.26-32.5Z"/>
      <path class="cls-1" d="M75.49,105.98l-22.78-11.99c-1.5-.78-2.19-3.68-1.44-5.99L76.58,2.11c.35-1.09.98-1.87,1.7-2.11h-39.21c-3.03,0-5.65,2.12-6.28,5.09L.14,158.65c-.85,3.99,2.2,7.76,5.45,7.76h58.4l13.08-54.89c.53-2.27-.19-4.81-1.57-5.53Z"/>
    </g>
  </g>
</svg>