<?xml version="1.0" encoding="UTF-8"?>
<svg id="_레이어_2" data-name="레이어 2" xmlns="http://www.w3.org/2000/svg" viewBox="0 0 1052.2 166.41">
  <defs>
    <style>
      .cls-1 {
        fill: #4900ff;
      }
    </style>
  </defs>
  <g id="_레이어_1-2" data-name="레이어 1">
    <g>
      <g>
        <path class="cls-1" d="M358.02,26.7c21.92,0,30.85,8.28,30.85,26.79v7.79c0,9.25-3.57,16.07-10.23,20.46,7.47,4.38,11.04,11.37,11.04,21.11v9.42c0,18.35-8.28,28.09-28.74,28.09h-96.28c-3.25,0-4.87-1.62-4.87-4.87V31.57c0-3.25,1.62-4.87,4.87-4.87h93.36ZM351.04,72.98c10.55,0,13.96-2.27,13.96-8.61v-4.87c0-6.82-3.73-10.07-12.01-10.07h-66.41c-1.46,0-2.11.65-2.11,2.27v21.27h66.57ZM284.47,115.35c0,1.62.65,2.27,2.11,2.27h66.57c8.28,0,12.02-3.08,12.02-10.23v-5.36c0-6.98-3.57-9.42-14.13-9.42h-66.57v22.73Z"/>
        <path class="cls-1" d="M480.68,51.22c28.41,0,38.64,8.61,38.64,32.8v23.54c0,24.19-10.23,32.8-38.64,32.8h-45.95c-28.41,0-38.48-8.61-38.48-32.8v-23.54c0-24.19,10.07-32.8,38.48-32.8h45.95ZM419.3,103.5c0,13.64,3.57,17.05,17.7,17.05h41.4c14.29,0,17.86-3.41,17.86-17.05v-15.42c0-13.48-3.57-16.89-17.86-16.89h-41.4c-14.13,0-17.7,3.41-17.7,16.89v15.42Z"/>
        <path class="cls-1" d="M610.18,51.22c28.41,0,38.64,8.61,38.64,32.8v23.54c0,24.19-10.23,32.8-38.64,32.8h-45.95c-28.41,0-38.48-8.61-38.48-32.8v-23.54c0-24.19,10.07-32.8,38.48-32.8h45.95ZM548.81,103.5c0,13.64,3.57,17.05,17.7,17.05h41.4c14.29,0,17.86-3.41,17.86-17.05v-15.42c0-13.48-3.57-16.89-17.86-16.89h-41.4c-14.13,0-17.7,3.41-17.7,16.89v15.42Z"/>
        <path class="cls-1" d="M759.86,51.22c1.95,0,2.92.97,2.92,2.92v13.96c0,1.95-.97,2.92-2.92,2.92h-73.23c-6.82,0-9.09,1.62-9.09,6.33v2.44c0,4.55,2.44,6.17,9.09,6.17h54.56c17.21,0,25.33,7.63,25.33,22.57v9.09c0,14.94-7.31,22.73-25.49,22.73h-83.13c-1.95,0-2.92-.97-2.92-2.92v-13.96c0-1.95.97-2.92,2.92-2.92h77.12c6.82,0,8.93-1.46,8.93-6.82v-4.38c0-4.22-2.6-6.01-8.93-6.01h-54.72c-17.21,0-25.33-7.63-25.33-22.73v-7.14c0-14.29,7.63-22.24,25.49-22.24h79.4Z"/>
        <path class="cls-1" d="M785.74,51.22v-21.43c0-2.44,1.3-3.73,3.57-3.73h16.07c2.27,0,3.57,1.3,3.57,3.73v21.43h28.58c1.95,0,2.92.97,2.92,2.92v14.13c0,1.95-.97,2.92-2.92,2.92h-28.58v36.86c0,9.09,3.09,12.34,13.64,12.34h15.91c1.95,0,2.92.97,2.92,2.92v14.13c0,1.95-.97,2.92-2.92,2.92h-19.81c-25.17,0-32.96-8.44-32.96-32.31v-36.86h-15.42c-1.95,0-2.92-.97-2.92-2.92v-14.13c0-1.95.97-2.92,2.92-2.92h15.42Z"/>
        <path class="cls-1" d="M919.55,51.22c28.74,0,38.64,8.93,38.64,32.8v43.35c0,10.39-2.44,12.99-12.01,12.99h-77.29c-18.67,0-25-6.33-25-23.06v-7.79c0-15.1,7.47-22.41,25-22.41h66.25v-1.62c0-10.39-3.9-14.13-17.86-14.13h-67.71c-1.95,0-2.92-.97-2.92-2.92v-14.29c0-1.95.97-2.92,2.92-2.92h69.98ZM935.13,115.68v-11.85h-59.43c-6.98,0-8.93,1.95-8.93,6.82v3.41c0,5.52,1.95,6.98,8.93,6.98h54.39c3.57,0,5.03-1.46,5.03-5.36Z"/>
        <path class="cls-1" d="M1049.28,51.22c1.95,0,2.92.97,2.92,2.92v14.29c0,1.95-.97,2.92-2.92,2.92h-43.19c-14.13,0-17.7,3.57-17.7,17.21v48.22c0,2.44-1.14,3.57-3.57,3.57h-15.91c-2.44,0-3.57-1.14-3.57-3.57v-52.77c0-23.87,9.9-32.8,38.48-32.8h45.46Z"/>
      </g>
      <g>
        <path class="cls-1" d="M179.21,41.55c4.11-19.75-1.23-41.55-53.27-41.55h-7.88c2.68,0,3.8,3.39,2.59,6.5l-22.3,57.1c-.96,2.47-.15,5.79,1.57,6.4l17.93,6.41c1.94.69,2.64,4.74,1.23,7.09l-49.35,82.92h23.7c44.84,0,72.61-17.28,79.61-50.39,5.14-24.68-8.43-38.05-25.09-41.96,15.84-5.35,27.77-15.84,31.26-32.5Z"/>
        <path class="cls-1" d="M75.49,105.98l-22.78-11.99c-1.5-.78-2.19-3.68-1.44-5.99L76.58,2.11c.35-1.09.98-1.87,1.7-2.11h-39.21c-3.03,0-5.65,2.12-6.28,5.09L.14,158.65c-.85,3.99,2.2,7.76,5.45,7.76h58.4l13.08-54.89c.53-2.27-.19-4.81-1.57-5.53Z"/>
      </g>
    </g>
  </g>
</svg>