<?xml version="1.0" encoding="UTF-8"?>
<svg id="_레이어_2" data-name="레이어 2" xmlns="http://www.w3.org/2000/svg" viewBox="0 0 792.41 114.31">
  <defs>
    <style>
      .cls-1 {
        fill: #4900ff;
      }
    </style>
  </defs>
  <g id="_레이어_1-2" data-name="레이어 1">
    <g>
      <path class="cls-1" d="M98.23.65c21.92,0,30.85,8.28,30.85,26.79v7.79c0,9.25-3.57,16.07-10.23,20.46,7.47,4.38,11.04,11.37,11.04,21.11v9.42c0,18.35-8.28,28.09-28.74,28.09H4.87c-3.25,0-4.87-1.62-4.87-4.87V5.52C0,2.27,1.62.65,4.87.65h93.36ZM91.25,46.92c10.55,0,13.96-2.27,13.96-8.61v-4.87c0-6.82-3.73-10.07-12.01-10.07H26.79c-1.46,0-2.11.65-2.11,2.27v21.27h66.57ZM24.68,89.3c0,1.62.65,2.27,2.11,2.27h66.57c8.28,0,12.02-3.08,12.02-10.23v-5.36c0-6.98-3.57-9.42-14.13-9.42H24.68v22.73Z"/>
      <path class="cls-1" d="M220.89,25.17c28.41,0,38.64,8.61,38.64,32.8v23.54c0,24.19-10.23,32.8-38.64,32.8h-45.95c-28.41,0-38.48-8.61-38.48-32.8v-23.54c0-24.19,10.07-32.8,38.48-32.8h45.95ZM159.51,77.45c0,13.64,3.57,17.05,17.7,17.05h41.4c14.29,0,17.86-3.41,17.86-17.05v-15.42c0-13.48-3.57-16.89-17.86-16.89h-41.4c-14.13,0-17.7,3.41-17.7,16.89v15.42Z"/>
      <path class="cls-1" d="M350.39,25.17c28.41,0,38.64,8.61,38.64,32.8v23.54c0,24.19-10.23,32.8-38.64,32.8h-45.95c-28.41,0-38.48-8.61-38.48-32.8v-23.54c0-24.19,10.07-32.8,38.48-32.8h45.95ZM289.02,77.45c0,13.64,3.57,17.05,17.7,17.05h41.4c14.29,0,17.86-3.41,17.86-17.05v-15.42c0-13.48-3.57-16.89-17.86-16.89h-41.4c-14.13,0-17.7,3.41-17.7,16.89v15.42Z"/>
      <path class="cls-1" d="M500.06,25.17c1.95,0,2.92.97,2.92,2.92v13.96c0,1.95-.97,2.92-2.92,2.92h-73.23c-6.82,0-9.09,1.62-9.09,6.33v2.44c0,4.55,2.44,6.17,9.09,6.17h54.56c17.21,0,25.33,7.63,25.33,22.57v9.09c0,14.94-7.31,22.73-25.49,22.73h-83.13c-1.95,0-2.92-.97-2.92-2.92v-13.96c0-1.95.97-2.92,2.92-2.92h77.12c6.82,0,8.93-1.46,8.93-6.82v-4.38c0-4.22-2.6-6.01-8.93-6.01h-54.72c-17.21,0-25.33-7.63-25.33-22.73v-7.14c0-14.29,7.63-22.24,25.49-22.24h79.4Z"/>
      <path class="cls-1" d="M525.95,25.17V3.73c0-2.44,1.3-3.73,3.57-3.73h16.07c2.27,0,3.57,1.3,3.57,3.73v21.43h28.58c1.95,0,2.92.97,2.92,2.92v14.13c0,1.95-.97,2.92-2.92,2.92h-28.58v36.86c0,9.09,3.09,12.34,13.64,12.34h15.91c1.95,0,2.92.97,2.92,2.92v14.13c0,1.95-.97,2.92-2.92,2.92h-19.81c-25.17,0-32.96-8.44-32.96-32.31v-36.86h-15.42c-1.95,0-2.92-.97-2.92-2.92v-14.13c0-1.95.97-2.92,2.92-2.92h15.42Z"/>
      <path class="cls-1" d="M659.75,25.17c28.74,0,38.64,8.93,38.64,32.8v43.35c0,10.39-2.44,12.99-12.01,12.99h-77.29c-18.67,0-25-6.33-25-23.06v-7.79c0-15.1,7.47-22.41,25-22.41h66.25v-1.62c0-10.39-3.9-14.13-17.86-14.13h-67.71c-1.95,0-2.92-.97-2.92-2.92v-14.29c0-1.95.97-2.92,2.92-2.92h69.98ZM675.34,89.63v-11.85h-59.43c-6.98,0-8.93,1.95-8.93,6.82v3.41c0,5.52,1.95,6.98,8.93,6.98h54.39c3.57,0,5.03-1.46,5.03-5.36Z"/>
      <path class="cls-1" d="M789.48,25.17c1.95,0,2.92.97,2.92,2.92v14.29c0,1.95-.97,2.92-2.92,2.92h-43.19c-14.13,0-17.7,3.57-17.7,17.21v48.22c0,2.44-1.14,3.57-3.57,3.57h-15.91c-2.44,0-3.57-1.14-3.57-3.57v-52.77c0-23.87,9.9-32.8,38.48-32.8h45.46Z"/>
    </g>
  </g>
</svg>