<svg width="24" height="24" viewBox="0 0 24 24" fill="none" xmlns="http://www.w3.org/2000/svg">
<path d="M2 12C2 17.5228 6.47715 22 12 22C17.5228 22 22 17.5228 22 12C22 6.47715 17.5228 2 12 2C6.47715 2 2 6.47715 2 12Z" fill="#DE3412"/>
<path d="M14.4354 8.43441C14.7478 8.12219 15.2539 8.12206 15.5662 8.43441C15.8786 8.74677 15.8785 9.25284 15.5662 9.56527L13.1307 12.0008L15.5643 14.4344C15.8767 14.7468 15.8767 15.2529 15.5643 15.5653C15.2519 15.8777 14.7459 15.8777 14.4334 15.5653L11.9998 13.1317L9.56625 15.5653C9.25383 15.8777 8.74781 15.8777 8.43539 15.5653C8.12297 15.2529 8.12297 14.7468 8.43539 14.4344L10.869 12.0008L8.43344 9.56527C8.12121 9.25284 8.12108 8.74677 8.43344 8.43441C8.74579 8.12206 9.25186 8.12219 9.56429 8.43441L11.9998 10.87L14.4354 8.43441Z" fill="white"/>
</svg>
