<svg width="24" height="24" viewBox="0 0 24 24" fill="none" xmlns="http://www.w3.org/2000/svg">
<path fill-rule="evenodd" clip-rule="evenodd" d="M10.5176 3.49523C11.3659 2.83525 12.6341 2.83525 13.4824 3.49523L20.2324 9.39953C20.7202 9.77932 20.9999 10.3279 21 10.9044V18.9991C20.9999 20.0348 20.1148 20.8867 18.9805 20.9894L18.75 21.0001H13.125V15.1232C13.125 14.5018 12.6213 13.9982 12 13.9982C11.3787 13.9982 10.875 14.5018 10.875 15.1232V21.0001H5.25L5.01953 20.9894C3.88522 20.8867 3.00007 20.0348 3 18.9991V10.9044C3.00011 10.3279 3.27982 9.77932 3.76758 9.39953L10.5176 3.49523ZM12 5.00012C11.8912 5.00012 11.8101 5.03097 11.7627 5.06164L5.08496 10.9044L5.04199 10.9425L5 10.9737V18.9269C5.03931 18.9567 5.12155 19.0001 5.25 19.0001H8.875V15.1232C8.875 13.3973 10.2741 11.9982 12 11.9982L12.1611 12.0021C13.8121 12.0859 15.125 13.4513 15.125 15.1232V19.0001H18.75C18.8784 19.0001 18.9607 18.9567 19 18.9269V10.9737L18.959 10.9425L18.915 10.9044L12.2363 5.06164C12.1888 5.03111 12.1082 5.00012 12 5.00012Z" fill="#222222"/>
</svg>
