<svg width="24" height="24" viewBox="0 0 24 24" fill="none" xmlns="http://www.w3.org/2000/svg">
<g clip-path="url(#clip0_577_9767)">
<path d="M14.7633 13.2196L14.3208 13.8989L14.7633 14.0429C15.7719 12.8696 16.3791 11.3465 16.3791 9.68954C16.3791 5.99485 13.3842 3 9.68954 3C5.99485 3 3 5.99485 3 9.68954C3 13.3842 5.99485 16.3791 9.68954 16.3791C11.3465 16.3791 12.8696 15.7719 14.0429 14.7633L13.5901 14.3208L13.2916 14.8353L19.4666 21L21 19.4666L14.7633 13.2196ZM9.68954 14.3208C7.12693 14.3208 5.05832 12.2521 5.05832 9.68954C5.05832 7.12693 7.12693 5.05832 9.68954 5.05832C12.2521 5.05832 14.3208 7.12693 14.3208 9.68954C14.3208 12.2521 12.2521 14.3208 9.68954 14.3208Z" fill="#222222"/>
</g>
<defs>
<clipPath id="clip0_577_9767">
<rect width="24" height="24" fill="white"/>
</clipPath>
</defs>
</svg>
